<mxfile host="Electron" modified="2024-01-17T08:43:40.841Z" agent="Mozilla/5.0 (Windows NT 10.0; Win64; x64) AppleWebKit/537.36 (KHTML, like Gecko) draw.io/21.6.5 Chrome/114.0.5735.243 Electron/25.3.1 Safari/537.36" etag="AfFXVEjBXNdOhdDTukXd" version="21.6.5" type="device">
  <diagram name="Page-1" id="TYYLoTbhaI-hcptKn8kF">
    <mxGraphModel dx="778" dy="809" grid="1" gridSize="10" guides="1" tooltips="1" connect="1" arrows="1" fold="1" page="1" pageScale="1" pageWidth="827" pageHeight="1169" math="0" shadow="0">
      <root>
        <mxCell id="0" />
        <mxCell id="1" parent="0" />
        <mxCell id="dzUz_BxZyCTlo6qbT3hY-6" style="edgeStyle=orthogonalEdgeStyle;rounded=0;orthogonalLoop=1;jettySize=auto;html=1;exitX=0.5;exitY=1;exitDx=0;exitDy=0;exitPerimeter=0;entryX=0.5;entryY=0;entryDx=0;entryDy=0;" edge="1" parent="1" source="dzUz_BxZyCTlo6qbT3hY-2" target="dzUz_BxZyCTlo6qbT3hY-5">
          <mxGeometry relative="1" as="geometry" />
        </mxCell>
        <mxCell id="dzUz_BxZyCTlo6qbT3hY-2" value="" style="verticalLabelPosition=bottom;verticalAlign=top;html=1;shape=mxgraph.flowchart.on-page_reference;fillColor=#000000;strokeColor=#d6b656;" vertex="1" parent="1">
          <mxGeometry x="390" y="130" width="30" height="30" as="geometry" />
        </mxCell>
        <mxCell id="dzUz_BxZyCTlo6qbT3hY-13" style="edgeStyle=orthogonalEdgeStyle;rounded=0;orthogonalLoop=1;jettySize=auto;html=1;exitX=0.5;exitY=1;exitDx=0;exitDy=0;entryX=0.5;entryY=0;entryDx=0;entryDy=0;entryPerimeter=0;" edge="1" parent="1" source="dzUz_BxZyCTlo6qbT3hY-5" target="dzUz_BxZyCTlo6qbT3hY-12">
          <mxGeometry relative="1" as="geometry" />
        </mxCell>
        <mxCell id="dzUz_BxZyCTlo6qbT3hY-5" value="Open leave management system" style="html=1;whiteSpace=wrap;" vertex="1" parent="1">
          <mxGeometry x="320" y="210" width="170" height="50" as="geometry" />
        </mxCell>
        <mxCell id="dzUz_BxZyCTlo6qbT3hY-17" style="edgeStyle=orthogonalEdgeStyle;rounded=0;orthogonalLoop=1;jettySize=auto;html=1;exitX=0.5;exitY=1;exitDx=0;exitDy=0;entryX=0.5;entryY=0;entryDx=0;entryDy=0;" edge="1" parent="1" source="dzUz_BxZyCTlo6qbT3hY-7" target="dzUz_BxZyCTlo6qbT3hY-8">
          <mxGeometry relative="1" as="geometry" />
        </mxCell>
        <mxCell id="dzUz_BxZyCTlo6qbT3hY-7" value="Check Leave Balance" style="html=1;whiteSpace=wrap;" vertex="1" parent="1">
          <mxGeometry x="140" y="380" width="140" height="50" as="geometry" />
        </mxCell>
        <mxCell id="dzUz_BxZyCTlo6qbT3hY-8" value="Request lor a leave" style="html=1;whiteSpace=wrap;" vertex="1" parent="1">
          <mxGeometry x="140" y="510" width="140" height="50" as="geometry" />
        </mxCell>
        <mxCell id="dzUz_BxZyCTlo6qbT3hY-9" value="Annual Leave" style="html=1;whiteSpace=wrap;" vertex="1" parent="1">
          <mxGeometry x="340" y="450" width="110" height="30" as="geometry" />
        </mxCell>
        <mxCell id="dzUz_BxZyCTlo6qbT3hY-10" value="Sick Leave" style="html=1;whiteSpace=wrap;" vertex="1" parent="1">
          <mxGeometry x="340" y="520" width="110" height="30" as="geometry" />
        </mxCell>
        <mxCell id="dzUz_BxZyCTlo6qbT3hY-11" value="Famiily Responsibility" style="html=1;whiteSpace=wrap;" vertex="1" parent="1">
          <mxGeometry x="340" y="585" width="110" height="30" as="geometry" />
        </mxCell>
        <mxCell id="dzUz_BxZyCTlo6qbT3hY-12" value="" style="line;strokeWidth=7;fillColor=none;align=left;verticalAlign=middle;spacingTop=-1;spacingLeft=3;spacingRight=3;rotatable=0;labelPosition=right;points=[];portConstraint=eastwest;strokeColor=inherit;shadow=0;" vertex="1" parent="1">
          <mxGeometry x="355" y="300" width="100" height="8" as="geometry" />
        </mxCell>
        <mxCell id="dzUz_BxZyCTlo6qbT3hY-16" value="" style="endArrow=classic;html=1;rounded=0;entryX=0.5;entryY=0;entryDx=0;entryDy=0;" edge="1" parent="1" target="dzUz_BxZyCTlo6qbT3hY-7">
          <mxGeometry width="50" height="50" relative="1" as="geometry">
            <mxPoint x="380.00279069767436" y="308" as="sourcePoint" />
            <mxPoint x="403.84" y="390" as="targetPoint" />
            <Array as="points">
              <mxPoint x="380" y="330" />
              <mxPoint x="210" y="330" />
            </Array>
          </mxGeometry>
        </mxCell>
        <mxCell id="dzUz_BxZyCTlo6qbT3hY-18" value="" style="endArrow=none;html=1;rounded=0;entryX=0;entryY=0.75;entryDx=0;entryDy=0;" edge="1" parent="1" target="dzUz_BxZyCTlo6qbT3hY-9">
          <mxGeometry width="50" height="50" relative="1" as="geometry">
            <mxPoint x="280" y="510" as="sourcePoint" />
            <mxPoint x="330" y="460" as="targetPoint" />
          </mxGeometry>
        </mxCell>
        <mxCell id="dzUz_BxZyCTlo6qbT3hY-19" value="" style="endArrow=none;html=1;rounded=0;entryX=0;entryY=0;entryDx=0;entryDy=0;" edge="1" parent="1" target="dzUz_BxZyCTlo6qbT3hY-11">
          <mxGeometry width="50" height="50" relative="1" as="geometry">
            <mxPoint x="280" y="560" as="sourcePoint" />
            <mxPoint x="330" y="510" as="targetPoint" />
          </mxGeometry>
        </mxCell>
        <mxCell id="dzUz_BxZyCTlo6qbT3hY-20" value="" style="endArrow=none;html=1;rounded=0;entryX=0;entryY=0.5;entryDx=0;entryDy=0;entryPerimeter=0;" edge="1" parent="1" target="dzUz_BxZyCTlo6qbT3hY-10">
          <mxGeometry width="50" height="50" relative="1" as="geometry">
            <mxPoint x="280" y="535" as="sourcePoint" />
            <mxPoint x="330" y="490" as="targetPoint" />
          </mxGeometry>
        </mxCell>
        <mxCell id="dzUz_BxZyCTlo6qbT3hY-21" value="Check Leave Status" style="whiteSpace=wrap;html=1;align=center;" vertex="1" parent="1">
          <mxGeometry x="520" y="380" width="120" height="50" as="geometry" />
        </mxCell>
        <mxCell id="dzUz_BxZyCTlo6qbT3hY-22" value="Pending" style="whiteSpace=wrap;html=1;align=center;" vertex="1" parent="1">
          <mxGeometry x="680" y="320" width="100" height="40" as="geometry" />
        </mxCell>
        <mxCell id="dzUz_BxZyCTlo6qbT3hY-23" value="Approved" style="whiteSpace=wrap;html=1;align=center;" vertex="1" parent="1">
          <mxGeometry x="680" y="440" width="100" height="40" as="geometry" />
        </mxCell>
        <mxCell id="dzUz_BxZyCTlo6qbT3hY-24" value="" style="endArrow=none;html=1;rounded=0;entryX=0;entryY=1;entryDx=0;entryDy=0;" edge="1" parent="1" target="dzUz_BxZyCTlo6qbT3hY-22">
          <mxGeometry width="50" height="50" relative="1" as="geometry">
            <mxPoint x="640" y="380" as="sourcePoint" />
            <mxPoint x="690" y="330" as="targetPoint" />
          </mxGeometry>
        </mxCell>
        <mxCell id="dzUz_BxZyCTlo6qbT3hY-25" value="" style="endArrow=none;html=1;rounded=0;entryX=0;entryY=0;entryDx=0;entryDy=0;" edge="1" parent="1" target="dzUz_BxZyCTlo6qbT3hY-23">
          <mxGeometry width="50" height="50" relative="1" as="geometry">
            <mxPoint x="640" y="430" as="sourcePoint" />
            <mxPoint x="690" y="380" as="targetPoint" />
          </mxGeometry>
        </mxCell>
        <mxCell id="dzUz_BxZyCTlo6qbT3hY-26" value="" style="endArrow=classic;html=1;rounded=0;entryX=0.5;entryY=0;entryDx=0;entryDy=0;" edge="1" parent="1" target="dzUz_BxZyCTlo6qbT3hY-21">
          <mxGeometry width="50" height="50" relative="1" as="geometry">
            <mxPoint x="430" y="310" as="sourcePoint" />
            <mxPoint x="500" y="300" as="targetPoint" />
            <Array as="points">
              <mxPoint x="430" y="330" />
              <mxPoint x="580" y="330" />
              <mxPoint x="580" y="350" />
            </Array>
          </mxGeometry>
        </mxCell>
        <mxCell id="dzUz_BxZyCTlo6qbT3hY-39" style="edgeStyle=orthogonalEdgeStyle;rounded=0;orthogonalLoop=1;jettySize=auto;html=1;exitX=0.5;exitY=1;exitDx=0;exitDy=0;entryX=0;entryY=0.5;entryDx=0;entryDy=0;" edge="1" parent="1" source="dzUz_BxZyCTlo6qbT3hY-27" target="dzUz_BxZyCTlo6qbT3hY-38">
          <mxGeometry relative="1" as="geometry" />
        </mxCell>
        <mxCell id="dzUz_BxZyCTlo6qbT3hY-27" value="Provide supporting documents" style="whiteSpace=wrap;html=1;align=center;" vertex="1" parent="1">
          <mxGeometry x="40" y="680" width="130" height="40" as="geometry" />
        </mxCell>
        <mxCell id="dzUz_BxZyCTlo6qbT3hY-40" style="edgeStyle=orthogonalEdgeStyle;rounded=0;orthogonalLoop=1;jettySize=auto;html=1;exitX=0.5;exitY=1;exitDx=0;exitDy=0;entryX=1;entryY=0.5;entryDx=0;entryDy=0;" edge="1" parent="1" source="dzUz_BxZyCTlo6qbT3hY-29" target="dzUz_BxZyCTlo6qbT3hY-38">
          <mxGeometry relative="1" as="geometry" />
        </mxCell>
        <mxCell id="dzUz_BxZyCTlo6qbT3hY-29" value="Entity" style="whiteSpace=wrap;html=1;align=center;" vertex="1" parent="1">
          <mxGeometry x="280" y="680" width="100" height="40" as="geometry" />
        </mxCell>
        <mxCell id="dzUz_BxZyCTlo6qbT3hY-30" value="" style="rhombus;whiteSpace=wrap;html=1;fillColor=#cce5ff;strokeColor=#36393d;" vertex="1" parent="1">
          <mxGeometry x="195" y="630" width="30" height="30" as="geometry" />
        </mxCell>
        <mxCell id="dzUz_BxZyCTlo6qbT3hY-34" value="" style="endArrow=none;html=1;rounded=0;entryX=0.5;entryY=1;entryDx=0;entryDy=0;" edge="1" parent="1" target="dzUz_BxZyCTlo6qbT3hY-8">
          <mxGeometry width="50" height="50" relative="1" as="geometry">
            <mxPoint x="210" y="630" as="sourcePoint" />
            <mxPoint x="260" y="580" as="targetPoint" />
          </mxGeometry>
        </mxCell>
        <mxCell id="dzUz_BxZyCTlo6qbT3hY-35" value="" style="endArrow=classic;html=1;rounded=0;exitX=0;exitY=0.5;exitDx=0;exitDy=0;entryX=0.5;entryY=0;entryDx=0;entryDy=0;" edge="1" parent="1" source="dzUz_BxZyCTlo6qbT3hY-30" target="dzUz_BxZyCTlo6qbT3hY-27">
          <mxGeometry width="50" height="50" relative="1" as="geometry">
            <mxPoint x="130" y="640" as="sourcePoint" />
            <mxPoint x="180" y="590" as="targetPoint" />
            <Array as="points">
              <mxPoint x="105" y="645" />
            </Array>
          </mxGeometry>
        </mxCell>
        <mxCell id="dzUz_BxZyCTlo6qbT3hY-36" value="" style="endArrow=classic;html=1;rounded=0;entryX=0.5;entryY=0;entryDx=0;entryDy=0;exitX=1;exitY=0.5;exitDx=0;exitDy=0;" edge="1" parent="1" source="dzUz_BxZyCTlo6qbT3hY-30" target="dzUz_BxZyCTlo6qbT3hY-29">
          <mxGeometry width="50" height="50" relative="1" as="geometry">
            <mxPoint x="270" y="650" as="sourcePoint" />
            <mxPoint x="320" y="600" as="targetPoint" />
            <Array as="points">
              <mxPoint x="330" y="645" />
            </Array>
          </mxGeometry>
        </mxCell>
        <mxCell id="dzUz_BxZyCTlo6qbT3hY-42" style="edgeStyle=orthogonalEdgeStyle;rounded=0;orthogonalLoop=1;jettySize=auto;html=1;exitX=0.5;exitY=1;exitDx=0;exitDy=0;entryX=0.3;entryY=0;entryDx=0;entryDy=0;entryPerimeter=0;" edge="1" parent="1" source="dzUz_BxZyCTlo6qbT3hY-38" target="dzUz_BxZyCTlo6qbT3hY-41">
          <mxGeometry relative="1" as="geometry" />
        </mxCell>
        <mxCell id="dzUz_BxZyCTlo6qbT3hY-38" value="" style="rhombus;whiteSpace=wrap;html=1;fillColor=#cce5ff;strokeColor=#36393d;" vertex="1" parent="1">
          <mxGeometry x="195" y="760" width="30" height="30" as="geometry" />
        </mxCell>
        <mxCell id="dzUz_BxZyCTlo6qbT3hY-41" value="" style="line;strokeWidth=7;fillColor=none;align=left;verticalAlign=middle;spacingTop=-1;spacingLeft=3;spacingRight=3;rotatable=0;labelPosition=right;points=[];portConstraint=eastwest;strokeColor=inherit;shadow=0;" vertex="1" parent="1">
          <mxGeometry x="370" y="870" width="100" height="8" as="geometry" />
        </mxCell>
        <mxCell id="dzUz_BxZyCTlo6qbT3hY-43" value="" style="ellipse;html=1;shape=endState;fillColor=#000000;strokeColor=#ff0000;" vertex="1" parent="1">
          <mxGeometry x="405" y="940" width="30" height="30" as="geometry" />
        </mxCell>
        <mxCell id="dzUz_BxZyCTlo6qbT3hY-44" value="" style="endArrow=none;html=1;rounded=0;" edge="1" parent="1" target="dzUz_BxZyCTlo6qbT3hY-41">
          <mxGeometry width="50" height="50" relative="1" as="geometry">
            <mxPoint x="420" y="940" as="sourcePoint" />
            <mxPoint x="470" y="890" as="targetPoint" />
          </mxGeometry>
        </mxCell>
        <mxCell id="dzUz_BxZyCTlo6qbT3hY-45" value="" style="endArrow=classic;html=1;rounded=0;exitX=0.5;exitY=1;exitDx=0;exitDy=0;entryX=0.7;entryY=0;entryDx=0;entryDy=0;entryPerimeter=0;" edge="1" parent="1" source="dzUz_BxZyCTlo6qbT3hY-21" target="dzUz_BxZyCTlo6qbT3hY-41">
          <mxGeometry width="50" height="50" relative="1" as="geometry">
            <mxPoint x="560" y="670" as="sourcePoint" />
            <mxPoint x="610" y="620" as="targetPoint" />
            <Array as="points">
              <mxPoint x="580" y="720" />
              <mxPoint x="440" y="720" />
            </Array>
          </mxGeometry>
        </mxCell>
      </root>
    </mxGraphModel>
  </diagram>
</mxfile>
